<?xml version="1.0" encoding="utf-8"?>
<!-- Generator: Adobe Illustrator 16.0.0, SVG Export Plug-In . SVG Version: 6.00 Build 0)  -->
<!DOCTYPE svg PUBLIC "-//W3C//DTD SVG 1.1//EN" "http://www.w3.org/Graphics/SVG/1.1/DTD/svg11.dtd">
<svg version="1.1" id="Layer_1" xmlns="http://www.w3.org/2000/svg" xmlns:xlink="http://www.w3.org/1999/xlink" x="0px" y="0px"
	 width="30px" height="30px" viewBox="5 5 30 30" enable-background="new 5 5 30 30" xml:space="preserve">
<path fill="#F4763B" d="M20.172,7.402c6.85,0,12.408,5.555,12.408,12.406c0,6.851-5.559,12.409-12.408,12.409
	c-6.851,0-12.406-5.559-12.406-12.409C7.766,12.957,13.321,7.402,20.172,7.402z"/>
<g>
	<g>
		<path fill="#FFFFFF" d="M18.101,13.333c1.239,0,2.36-0.007,3.485,0c0.448,0.004,0.785-0.054,1.06-0.534
			c0.261-0.463,0.688-0.446,0.879,0.014c0.234,0.561,0.616,0.493,1.038,0.521c0.56,0.046,1.133,0.054,1.669,0.194
			c1.158,0.309,1.767,1.055,1.78,2.246c0.027,2.987,0,5.975,0.014,8.959c0.007,1.233-1.137,2.453-2.508,2.426
			c-3.556-0.065-7.104-0.011-10.652-0.024c-1.521-0.014-2.514-0.989-2.53-2.515c-0.028-2.899-0.021-5.799,0-8.701
			c0.007-1.306,0.654-2.121,1.913-2.42c0.581-0.138,1.195-0.122,1.799-0.165c0.309-0.023,0.514-0.071,0.725-0.394
			c0.421-0.658,0.621-0.62,1.098,0.024C17.942,13.062,18.001,13.175,18.101,13.333z M13.479,18.549c0,2.087-0.043,4.112,0.021,6.136
			c0.027,0.869,0.644,1.319,1.61,1.322c3.377,0.015,6.754,0.015,10.125,0c1.154-0.007,1.636-0.508,1.653-1.683
			c0.017-1.731,0.006-3.46-0.004-5.194c0-0.201-0.09-0.396-0.135-0.584C22.323,18.549,17.964,18.549,13.479,18.549z M13.523,17.156
			c4.457,0,8.837,0,13.21,0c0.378-2.055-0.068-2.596-2.061-2.571c-0.124,0.003-0.251,0.003-0.386,0.003
			c-0.315,0-0.508,0.089-0.71,0.406c-0.375,0.608-0.663,0.618-1.021,0.045c-0.228-0.37-0.464-0.451-0.819-0.451
			c-0.953,0-1.903-0.003-2.854,0c-0.464,0.004-0.896-0.069-1.146,0.561c-0.17,0.433-0.722,0.419-0.893-0.025
			c-0.226-0.565-0.591-0.538-1.024-0.535c-0.345,0-0.694-0.02-1.039,0.014c-0.752,0.09-1.252,0.599-1.304,1.356
			C13.449,16.334,13.503,16.717,13.523,17.156z"/>
		<path fill="#FFFFFF" d="M25.635,20.825c-0.008,0.55-0.55,1.063-1.1,1.032c-0.495-0.021-0.976-0.502-1.007-0.996
			c-0.031-0.547,0.481-1.088,1.034-1.098C25.112,19.757,25.641,20.284,25.635,20.825z"/>
		<path fill="#FFFFFF" d="M15.825,24.757c-0.54,0.027-1.095-0.498-1.108-1.037c-0.012-0.544,0.531-1.086,1.072-1.076
			c0.496,0.004,0.996,0.475,1.037,0.979C16.876,24.159,16.37,24.729,15.825,24.757z"/>
		<path fill="#FFFFFF" d="M24.617,22.644c0.543,0.024,1.064,0.595,1.023,1.123c-0.045,0.55-0.628,1.049-1.16,0.99
			c-0.495-0.056-0.952-0.563-0.956-1.062C23.524,23.148,24.068,22.62,24.617,22.644z"/>
		<path fill="#FFFFFF" d="M15.835,21.851c-0.566-0.007-1.114-0.516-1.114-1.036c-0.004-0.541,0.527-1.058,1.075-1.051
			c0.55,0.01,1.06,0.551,1.027,1.094C16.799,21.359,16.299,21.851,15.835,21.851z"/>
		<path fill="#FFFFFF" d="M21.688,22.644c0.49,0,0.978,0.491,1.009,1.007c0.031,0.557-0.501,1.12-1.041,1.106
			c-0.5-0.014-0.975-0.491-1.002-1.01C20.626,23.184,21.129,22.644,21.688,22.644z"/>
		<path fill="#FFFFFF" d="M21.679,19.768c0.534-0.004,1.056,0.561,1.019,1.106c-0.031,0.468-0.56,0.963-1.045,0.977
			c-0.477,0.014-0.967-0.466-0.994-0.986C20.622,20.305,21.122,19.771,21.679,19.768z"/>
		<path fill="#FFFFFF" d="M18.659,24.757c-0.484-0.007-0.971-0.502-0.994-1.018c-0.029-0.497,0.551-1.092,1.064-1.092
			c0.472,0.004,0.957,0.515,0.972,1.023C19.719,24.238,19.212,24.771,18.659,24.757z"/>
		<path fill="#FFFFFF" d="M17.699,20.72c0.013-0.514,0.527-0.985,1.037-0.952c0.504,0.03,0.962,0.523,0.965,1.04
			c0.004,0.514-0.479,1.036-0.956,1.043C18.248,21.857,17.682,21.248,17.699,20.72z"/>
	</g>
</g>
</svg>
