<?xml version="1.0" encoding="utf-8"?>
<!-- Generator: Adobe Illustrator 16.0.0, SVG Export Plug-In . SVG Version: 6.00 Build 0)  -->
<!DOCTYPE svg PUBLIC "-//W3C//DTD SVG 1.1//EN" "http://www.w3.org/Graphics/SVG/1.1/DTD/svg11.dtd">
<svg version="1.1" id="Layer_1" xmlns="http://www.w3.org/2000/svg" xmlns:xlink="http://www.w3.org/1999/xlink" x="0px" y="0px"
	 width="30px" height="30px" viewBox="0 0 30 30" enable-background="new 0 0 30 30" xml:space="preserve">
<g>
	<path fill="#F4763B" d="M0.816,14.931c0-6.739,6.354-12.194,14.183-12.194s14.183,5.455,14.183,12.194
		c0,6.734-6.354,12.19-14.183,12.19c-2.818,0-5.427-0.731-7.637-1.948c-1.782,1.189-4.166,2.536-5.05,1.948l1.961-4.294
		C2.149,20.695,0.816,17.955,0.816,14.931z"/>
	<circle fill="#FFFFFF" cx="10.329" cy="14.998" r="1.758"/>
	<path fill="#FFFFFF" d="M16.756,14.998c0,0.974-0.786,1.761-1.757,1.761c-0.974,0-1.759-0.787-1.759-1.761
		c0-0.971,0.785-1.757,1.759-1.757C15.97,13.241,16.756,14.027,16.756,14.998z"/>
	<path fill="#FFFFFF" d="M21.427,14.998c0,0.974-0.788,1.761-1.757,1.761c-0.977,0-1.761-0.787-1.761-1.761
		c0-0.971,0.784-1.757,1.761-1.757C20.639,13.241,21.427,14.027,21.427,14.998z"/>
</g>
</svg>
